# xmcd
#
# Track frame offsets:
#	150
#	45952
#	74477
#	103104
#	145065
#	171345
#	199070
#	228192
#	267187
#	308735
#
# Disc length: 4516 seconds
#
# Revision: 1
# Processed by: cddbd v1.5.2PL0 Copyright (c) Steve Scherf et al.
# Submitted via: audiograbber 1.83.01
#
DISCID=8611a20a
DTITLE=Overdose - Volume One
DYEAR=1995
DGENRE=Trance
TTITLE0=Bassman - De La Ray - Stonehenge (Megalith Mix)
TTITLE1=Digital Mama - I Likem Like That (Phase 2 Mix)
TTITLE2=Hypetraxx - Whop Your Body (Mind Absorbent)
TTITLE3=DJ Scot Project - U (V-Mix)
TTITLE4=Rubicon Massacre Ltd. - Hello Little Jam
TTITLE5=Warpphunk - Sunscape
TTITLE6=Digital Mama - Dig This (Gonna Luv This Mix)
TTITLE7=DJ Scot Project - X (Spacefrog Remix)
TTITLE8=Ugly Kid Jay - The Day The Earth Caught Fire (Glow Mix)
TTITLE9=Hypnosis - Amon (Different 02)
EXTD=
EXTT0=
EXTT1=
EXTT2=
EXTT3=
EXTT4=
EXTT5=
EXTT6=
EXTT7=
EXTT8=
EXTT9=
PLAYORDER=
